<svg xmlns="http://www.w3.org/2000/svg" xmlns:xlink="http://www.w3.org/1999/xlink" width="500" zoomAndPan="magnify" viewBox="0 0 375 374.999991" height="500" preserveAspectRatio="xMidYMid meet" version="1.0"><defs><clipPath id="1a8a64ab54"><path d="M 6.582031 6.582031 L 369.445312 6.582031 L 369.445312 369.445312 L 6.582031 369.445312 Z M 6.582031 6.582031 " clip-rule="nonzero"/></clipPath></defs><g clip-path="url(#1a8a64ab54)"><path fill="#ffffff" d="M 6.582031 6.582031 L 369.445312 6.582031 L 369.445312 369.445312 L 6.582031 369.445312 Z M 6.582031 6.582031 " fill-opacity="1" fill-rule="nonzero"/></g><path stroke-linecap="butt" transform="matrix(10.995927, 0, 0, 10.995927, 6.581357, 6.581352)" fill-opacity="1" fill="#ffffff" fill-rule="nonzero" stroke-linejoin="miter" d="M 2.000092 2.499922 L 8.999843 2.499922 M 10.999873 2.499922 L 11.999888 2.499922 M 14.999934 2.499922 L 15.999949 2.499922 M 17.99998 2.499922 L 20.00001 2.499922 M 21.000025 2.499922 L 22.00004 2.499922 M 24.000071 2.499922 L 31.000177 2.499922 M 2.000092 3.499937 L 3.000107 3.499937 M 7.999828 3.499937 L 8.999843 3.499937 M 9.999858 3.499937 L 10.999873 3.499937 M 11.999888 3.499937 L 14.999934 3.499937 M 15.999949 3.499937 L 20.00001 3.499937 M 21.000025 3.499937 L 22.00004 3.499937 M 24.000071 3.499937 L 25.000086 3.499937 M 30.000162 3.499937 L 31.000177 3.499937 M 2.000092 4.499953 L 3.000107 4.499953 M 4.000122 4.499953 L 7.000168 4.499953 M 7.999828 4.499953 L 8.999843 4.499953 M 12.999904 4.499953 L 13.999919 4.499953 M 14.999934 4.499953 L 16.999964 4.499953 M 17.99998 4.499953 L 18.999995 4.499953 M 21.000025 4.499953 L 22.00004 4.499953 M 24.000071 4.499953 L 25.000086 4.499953 M 26.000101 4.499953 L 29.000147 4.499953 M 30.000162 4.499953 L 31.000177 4.499953 M 2.000092 5.499968 L 3.000107 5.499968 M 4.000122 5.499968 L 7.000168 5.499968 M 7.999828 5.499968 L 8.999843 5.499968 M 11.999888 5.499968 L 12.999904 5.499968 M 13.999919 5.499968 L 17.99998 5.499968 M 21.000025 5.499968 L 22.00004 5.499968 M 24.000071 5.499968 L 25.000086 5.499968 M 26.000101 5.499968 L 29.000147 5.499968 M 30.000162 5.499968 L 31.000177 5.499968 M 2.000092 6.499983 L 3.000107 6.499983 M 4.000122 6.499983 L 7.000168 6.499983 M 7.999828 6.499983 L 8.999843 6.499983 M 9.999858 6.499983 L 11.999888 6.499983 M 12.999904 6.499983 L 14.999934 6.499983 M 15.999949 6.499983 L 16.999964 6.499983 M 18.999995 6.499983 L 22.00004 6.499983 M 24.000071 6.499983 L 25.000086 6.499983 M 26.000101 6.499983 L 29.000147 6.499983 M 30.000162 6.499983 L 31.000177 6.499983 M 2.000092 7.499998 L 3.000107 7.499998 M 7.999828 7.499998 L 8.999843 7.499998 M 11.999888 7.499998 L 12.999904 7.499998 M 13.999919 7.499998 L 15.999949 7.499998 M 20.00001 7.499998 L 23.000056 7.499998 M 24.000071 7.499998 L 25.000086 7.499998 M 30.000162 7.499998 L 31.000177 7.499998 M 2.000092 8.500013 L 8.999843 8.500013 M 9.999858 8.500013 L 10.999873 8.500013 M 11.999888 8.500013 L 12.999904 8.500013 M 13.999919 8.500013 L 14.999934 8.500013 M 15.999949 8.500013 L 16.999964 8.500013 M 17.99998 8.500013 L 18.999995 8.500013 M 20.00001 8.500013 L 21.000025 8.500013 M 22.00004 8.500013 L 23.000056 8.500013 M 24.000071 8.500013 L 31.000177 8.500013 M 11.999888 9.500029 L 12.999904 9.500029 M 14.999934 9.500029 L 16.999964 9.500029 M 17.99998 9.500029 L 20.00001 9.500029 M 21.000025 9.500029 L 22.00004 9.500029 M 2.000092 10.500044 L 3.000107 10.500044 M 4.000122 10.500044 L 5.000137 10.500044 M 6.000153 10.500044 L 7.000168 10.500044 M 7.999828 10.500044 L 8.999843 10.500044 M 12.999904 10.500044 L 14.999934 10.500044 M 15.999949 10.500044 L 17.99998 10.500044 M 18.999995 10.500044 L 20.00001 10.500044 M 21.000025 10.500044 L 23.000056 10.500044 M 26.000101 10.500044 L 27.000116 10.500044 M 29.000147 10.500044 L 30.000162 10.500044 M 5.000137 11.500059 L 6.000153 11.500059 M 7.000168 11.500059 L 7.999828 11.500059 M 8.999843 11.500059 L 10.999873 11.500059 M 11.999888 11.500059 L 14.999934 11.500059 M 15.999949 11.500059 L 17.99998 11.500059 M 18.999995 11.500059 L 20.00001 11.500059 M 22.00004 11.500059 L 25.000086 11.500059 M 27.000116 11.500059 L 28.000132 11.500059 M 30.000162 11.500059 L 31.000177 11.500059 M 2.000092 12.500074 L 4.000122 12.500074 M 6.000153 12.500074 L 7.000168 12.500074 M 7.999828 12.500074 L 8.999843 12.500074 M 9.999858 12.500074 L 10.999873 12.500074 M 12.999904 12.500074 L 15.999949 12.500074 M 20.00001 12.500074 L 21.000025 12.500074 M 22.00004 12.500074 L 25.000086 12.500074 M 26.000101 12.500074 L 27.000116 12.500074 M 28.000132 12.500074 L 31.000177 12.500074 M 2.000092 13.500089 L 3.000107 13.500089 M 6.000153 13.500089 L 7.000168 13.500089 M 8.999843 13.500089 L 9.999858 13.500089 M 10.999873 13.500089 L 11.999888 13.500089 M 13.999919 13.500089 L 14.999934 13.500089 M 16.999964 13.500089 L 17.99998 13.500089 M 18.999995 13.500089 L 23.000056 13.500089 M 29.000147 13.500089 L 30.000162 13.500089 M 6.000153 14.500105 L 7.000168 14.500105 M 7.999828 14.500105 L 8.999843 14.500105 M 9.999858 14.500105 L 13.999919 14.500105 M 17.99998 14.500105 L 20.00001 14.500105 M 21.000025 14.500105 L 26.000101 14.500105 M 27.000116 14.500105 L 28.000132 14.500105 M 29.000147 14.500105 L 31.000177 14.500105 M 5.000137 15.50012 L 6.000153 15.50012 M 8.999843 15.50012 L 9.999858 15.50012 M 10.999873 15.50012 L 15.999949 15.50012 M 16.999964 15.50012 L 21.000025 15.50012 M 22.00004 15.50012 L 23.000056 15.50012 M 24.000071 15.50012 L 25.000086 15.50012 M 27.000116 15.50012 L 28.000132 15.50012 M 30.000162 15.50012 L 31.000177 15.50012 M 3.000107 16.500135 L 4.000122 16.500135 M 6.000153 16.500135 L 10.999873 16.500135 M 12.999904 16.500135 L 14.999934 16.500135 M 15.999949 16.500135 L 18.999995 16.500135 M 20.00001 16.500135 L 21.000025 16.500135 M 22.00004 16.500135 L 23.000056 16.500135 M 24.000071 16.500135 L 25.000086 16.500135 M 27.000116 16.500135 L 28.000132 16.500135 M 29.000147 16.500135 L 31.000177 16.500135 M 4.000122 17.50015 L 7.000168 17.50015 M 8.999843 17.50015 L 9.999858 17.50015 M 11.999888 17.50015 L 13.999919 17.50015 M 14.999934 17.50015 L 16.999964 17.50015 M 17.99998 17.50015 L 20.00001 17.50015 M 21.000025 17.50015 L 26.000101 17.50015 M 27.000116 17.50015 L 28.000132 17.50015 M 29.000147 17.50015 L 30.000162 17.50015 M 2.000092 18.500165 L 9.999858 18.500165 M 10.999873 18.500165 L 14.999934 18.500165 M 15.999949 18.500165 L 17.99998 18.500165 M 18.999995 18.500165 L 20.00001 18.500165 M 23.000056 18.500165 L 26.000101 18.500165 M 27.000116 18.500165 L 28.000132 18.500165 M 29.000147 18.500165 L 31.000177 18.500165 M 5.000137 19.499825 L 7.000168 19.499825 M 8.999843 19.499825 L 10.999873 19.499825 M 15.999949 19.499825 L 17.99998 19.499825 M 18.999995 19.499825 L 21.000025 19.499825 M 22.00004 19.499825 L 25.000086 19.499825 M 27.000116 19.499825 L 29.000147 19.499825 M 30.000162 19.499825 L 31.000177 19.499825 M 2.000092 20.49984 L 3.000107 20.49984 M 4.000122 20.49984 L 9.999858 20.49984 M 11.999888 20.49984 L 13.999919 20.49984 M 14.999934 20.49984 L 15.999949 20.49984 M 20.00001 20.49984 L 21.000025 20.49984 M 23.000056 20.49984 L 24.000071 20.49984 M 25.000086 20.49984 L 27.000116 20.49984 M 29.000147 20.49984 L 31.000177 20.49984 M 3.000107 21.499856 L 5.000137 21.499856 M 9.999858 21.499856 L 11.999888 21.499856 M 16.999964 21.499856 L 17.99998 21.499856 M 18.999995 21.499856 L 20.00001 21.499856 M 21.000025 21.499856 L 23.000056 21.499856 M 24.000071 21.499856 L 25.000086 21.499856 M 27.000116 21.499856 L 28.000132 21.499856 M 29.000147 21.499856 L 30.000162 21.499856 M 2.000092 22.499871 L 3.000107 22.499871 M 4.000122 22.499871 L 7.000168 22.499871 M 7.999828 22.499871 L 8.999843 22.499871 M 13.999919 22.499871 L 14.999934 22.499871 M 17.99998 22.499871 L 21.000025 22.499871 M 22.00004 22.499871 L 27.000116 22.499871 M 9.999858 23.499886 L 13.999919 23.499886 M 14.999934 23.499886 L 15.999949 23.499886 M 16.999964 23.499886 L 18.999995 23.499886 M 21.000025 23.499886 L 23.000056 23.499886 M 26.000101 23.499886 L 27.000116 23.499886 M 28.000132 23.499886 L 31.000177 23.499886 M 2.000092 24.499901 L 8.999843 24.499901 M 10.999873 24.499901 L 11.999888 24.499901 M 13.999919 24.499901 L 14.999934 24.499901 M 15.999949 24.499901 L 20.00001 24.499901 M 21.000025 24.499901 L 23.000056 24.499901 M 24.000071 24.499901 L 25.000086 24.499901 M 26.000101 24.499901 L 28.000132 24.499901 M 29.000147 24.499901 L 31.000177 24.499901 M 2.000092 25.499916 L 3.000107 25.499916 M 7.999828 25.499916 L 8.999843 25.499916 M 13.999919 25.499916 L 16.999964 25.499916 M 17.99998 25.499916 L 21.000025 25.499916 M 22.00004 25.499916 L 23.000056 25.499916 M 26.000101 25.499916 L 28.000132 25.499916 M 29.000147 25.499916 L 30.000162 25.499916 M 2.000092 26.499932 L 3.000107 26.499932 M 4.000122 26.499932 L 7.000168 26.499932 M 7.999828 26.499932 L 8.999843 26.499932 M 9.999858 26.499932 L 13.999919 26.499932 M 15.999949 26.499932 L 17.99998 26.499932 M 20.00001 26.499932 L 21.000025 26.499932 M 22.00004 26.499932 L 27.000116 26.499932 M 29.000147 26.499932 L 30.000162 26.499932 M 2.000092 27.499947 L 3.000107 27.499947 M 4.000122 27.499947 L 7.000168 27.499947 M 7.999828 27.499947 L 8.999843 27.499947 M 10.999873 27.499947 L 11.999888 27.499947 M 12.999904 27.499947 L 14.999934 27.499947 M 15.999949 27.499947 L 17.99998 27.499947 M 21.000025 27.499947 L 24.000071 27.499947 M 25.000086 27.499947 L 27.000116 27.499947 M 28.000132 27.499947 L 29.000147 27.499947 M 2.000092 28.499962 L 3.000107 28.499962 M 4.000122 28.499962 L 7.000168 28.499962 M 7.999828 28.499962 L 8.999843 28.499962 M 9.999858 28.499962 L 10.999873 28.499962 M 12.999904 28.499962 L 14.999934 28.499962 M 18.999995 28.499962 L 20.00001 28.499962 M 21.000025 28.499962 L 22.00004 28.499962 M 25.000086 28.499962 L 28.000132 28.499962 M 30.000162 28.499962 L 31.000177 28.499962 M 2.000092 29.499977 L 3.000107 29.499977 M 7.999828 29.499977 L 8.999843 29.499977 M 11.999888 29.499977 L 13.999919 29.499977 M 15.999949 29.499977 L 17.99998 29.499977 M 21.000025 29.499977 L 23.000056 29.499977 M 24.000071 29.499977 L 25.000086 29.499977 M 26.000101 29.499977 L 27.000116 29.499977 M 29.000147 29.499977 L 30.000162 29.499977 M 2.000092 30.499992 L 8.999843 30.499992 M 9.999858 30.499992 L 11.999888 30.499992 M 12.999904 30.499992 L 14.999934 30.499992 M 17.99998 30.499992 L 18.999995 30.499992 M 21.000025 30.499992 L 23.000056 30.499992 M 26.000101 30.499992 L 28.000132 30.499992 M 29.000147 30.499992 L 31.000177 30.499992 " stroke="#000000" stroke-width="1" stroke-opacity="1" stroke-miterlimit="4"/></svg>